HIERARCHY
ROOT root
{
	OFFSET 0.000000 0.000000 0.000000
	CHANNELS 6 Xposition Yposition Zposition Zrotation Yrotation Xrotation
	JOINT lhip
	{
		OFFSET 0.058581 -0.082280 -0.017664
		CHANNELS 3 Zrotation Yrotation Xrotation
		JOINT lknee
		{
			OFFSET 0.043451 -0.386469 0.008037
			CHANNELS 3 Zrotation Yrotation Xrotation
			JOINT lankle
			{
				OFFSET -0.014790 -0.426874 -0.037428
				CHANNELS 3 Zrotation Yrotation Xrotation
				JOINT ltoe
				{
					OFFSET 0.041054 -0.060286 0.122042
					CHANNELS 3 Zrotation Yrotation Xrotation
					End Site
					{
						OFFSET 0.000000 0.000000 0.000000
					}
				}
			}
		}
	}
	JOINT rhip
	{
		OFFSET -0.060310 -0.090513 -0.013543
		CHANNELS 3 Zrotation Yrotation Xrotation
		JOINT rknee
		{
			OFFSET -0.043257 -0.383688 -0.004843
			CHANNELS 3 Zrotation Yrotation Xrotation
			JOINT rankle
			{
				OFFSET 0.019056 -0.420046 -0.034562
				CHANNELS 3 Zrotation Yrotation Xrotation
				JOINT rtoe
				{
					OFFSET -0.034840 -0.062106 0.130323
					CHANNELS 3 Zrotation Yrotation Xrotation
					End Site
					{
						OFFSET 0.000000 0.000000 0.000000
					}
				}
			}
		}
	}
	JOINT lowerback
	{
		OFFSET 0.004439 0.124404 -0.038385
		CHANNELS 3 Zrotation Yrotation Xrotation
		JOINT upperback
		{
			OFFSET 0.004488 0.137956 0.026820
			CHANNELS 3 Zrotation Yrotation Xrotation
			JOINT chest
			{
				OFFSET -0.002265 0.056032 0.002855
				CHANNELS 3 Zrotation Yrotation Xrotation
				JOINT lowerneck
				{
					OFFSET -0.013390 0.211636 -0.033468
					CHANNELS 3 Zrotation Yrotation Xrotation
					JOINT upperneck
					{
						OFFSET 0.010113 0.088937 0.050410
						CHANNELS 3 Zrotation Yrotation Xrotation
						End Site
						{
							OFFSET 0.000000 0.000000 0.000000
						}
					}
				}
				JOINT lclavicle
				{
					OFFSET 0.071702 0.114000 -0.018898
					CHANNELS 3 Zrotation Yrotation Xrotation
					JOINT lshoulder
					{
						OFFSET 0.122921 0.045205 -0.019046
						CHANNELS 3 Zrotation Yrotation Xrotation
						JOINT lelbow
						{
							OFFSET 0.255332 -0.015649 -0.022946
							CHANNELS 3 Zrotation Yrotation Xrotation
							JOINT lwrist
							{
								OFFSET 0.265709 0.012698 -0.007375
								CHANNELS 3 Zrotation Yrotation Xrotation
								End Site
								{
									OFFSET 0.000000 0.000000 0.000000
								}
							}
						}
					}
				}
				JOINT rclavicle
				{
					OFFSET -0.082954 0.112472 -0.023707
					CHANNELS 3 Zrotation Yrotation Xrotation
					JOINT rshoulder
					{
						OFFSET -0.113228 0.046853 -0.008472
						CHANNELS 3 Zrotation Yrotation Xrotation
						JOINT relbow
						{
							OFFSET -0.260127 -0.014369 -0.031269
							CHANNELS 3 Zrotation Yrotation Xrotation
							JOINT rwrist
							{
								OFFSET -0.269108 0.006794 -0.006027
								CHANNELS 3 Zrotation Yrotation Xrotation
								End Site
								{
									OFFSET 0.000000 0.000000 0.000000
								}
							}
						}
					}
				}
			}
		}
	}
}
MOTION
Frames: 5
Frame Time: 0.033333
-0.809529 0.852816 0.948164 82.470004 -1.434321 91.970403 8.386145 4.187546 4.030983 4.754034 -5.965256 -8.001589 -2.464592 10.118267 -10.907435 0.000000 -0.000000 0.000000 -7.280278 -4.175853 -3.620659 -5.373294 -1.722619 -6.756102 3.778494 -7.191175 -9.634725 0.000000 -0.000000 0.000000 -1.068870 2.142709 0.529867 1.654479 -1.819688 7.668533 -0.342938 0.858422 -5.505910 -2.340881 -1.462598 3.419750 3.122061 -6.438306 -6.788692 -22.438018 5.032240 -3.297574 -60.847473 -2.632199 14.158634 12.328986 -23.457399 -5.268160 -4.832089 -17.916869 7.105240 24.196342 2.096817 1.163149 55.375449 -0.179689 10.976502 -8.971823 23.874972 -0.282861 6.081098 12.009309 5.297817 
-0.809317 0.852873 0.948266 82.520452 -1.400732 92.051996 8.404904 4.255985 3.919876 4.783142 -6.207992 -7.916113 -2.459508 10.108136 -10.999815 0.000000 -0.000000 0.000000 -7.184148 -4.269485 -3.625508 -5.504269 -1.599987 -6.865752 3.928228 -7.282251 -9.505508 0.000000 -0.000000 0.000000 -0.941174 1.946425 0.873830 1.520591 -1.805917 6.928248 -0.370655 0.835240 -5.106089 -2.310559 -1.603454 3.106891 3.197717 -6.325613 -6.802695 -22.167615 5.271200 -3.602146 -60.816855 -2.493199 14.416896 12.243941 -23.577573 -4.527397 -4.943186 -17.980024 6.647787 24.093378 1.895782 0.952474 55.377678 -0.350453 11.174016 -8.820458 23.731376 0.260722 6.667975 11.959882 5.057109 
-0.809249 0.852829 0.948354 82.377860 -1.402204 92.136975 8.388113 4.243904 3.836401 4.728017 -6.083961 -7.811343 -2.395168 10.258650 -11.027465 0.000000 -0.000000 0.000000 -7.182866 -4.231415 -3.820325 -5.495978 -1.525872 -6.698171 4.049515 -7.251762 -9.582001 0.000000 -0.000000 0.000000 -0.984813 1.920222 0.986123 1.496998 -1.789616 6.721318 -0.378779 0.863891 -5.126366 -2.343389 -1.743453 3.189767 3.277201 -6.397079 -6.644565 -21.846447 5.321981 -3.514669 -60.581875 -2.558132 14.420095 11.944940 -23.711758 -4.244322 -5.228636 -18.173243 6.591495 23.753694 1.939196 1.109509 55.443018 -0.462298 11.295382 -8.890994 23.593883 0.428696 6.852990 12.046951 4.804653 
-0.809378 0.852871 0.948405 82.298986 -1.405971 92.196891 8.374047 4.198105 3.364687 4.662806 -6.289489 -7.018840 -2.390429 10.436127 -11.289499 0.000000 -0.000000 0.000000 -7.119678 -4.191842 -4.102225 -5.607014 -1.321843 -6.363981 3.985715 -7.407154 -9.700173 0.000000 -0.000000 0.000000 -0.952397 1.920407 1.253615 1.398698 -1.710179 6.172447 -0.417407 0.807742 -4.718730 -2.451635 -2.163156 3.044548 3.369387 -6.764410 -6.613953 -21.051530 5.361533 -3.854472 -59.991552 -3.222333 14.618503 11.890739 -22.737828 -2.966007 -6.934697 -18.264119 7.329538 22.963488 2.161490 1.102483 54.985471 0.005370 11.616168 -8.233088 22.031569 1.845528 8.307376 11.485186 4.884898 
-0.810064 0.852714 0.949184 82.343414 -1.335723 92.174633 8.515374 3.855918 3.020183 4.485410 -6.284202 -6.380822 -2.317643 10.561308 -11.482860 0.000000 -0.000000 0.000000 -6.900710 -4.199311 -4.352997 -5.797653 -1.165576 -5.884919 4.033129 -7.678593 -9.881370 0.000000 -0.000000 0.000000 -1.055819 2.007250 1.495678 1.521887 -1.855670 6.209513 -0.387436 0.949349 -4.910653 -2.690273 -2.726420 3.125914 3.653177 -7.438416 -6.535394 -20.278198 5.062685 -4.234525 -59.385553 -3.649118 14.777264 11.930691 -21.211671 -2.612733 -8.626170 -17.782885 8.392825 22.432669 2.709654 1.165472 53.968304 0.042431 11.939590 -7.925415 21.081979 3.019269 10.724468 11.322981 5.785522 
